<svg width="19" height="19" viewBox="0 0 19 19" fill="none" xmlns="http://www.w3.org/2000/svg">
<path fill-rule="evenodd" clip-rule="evenodd" d="M15.0417 17.4167H16.625V7.97129C15.7067 7.37517 14.634 6.77667 13.6048 6.34679C13.8652 5.91613 14.0592 5.4055 14.1566 4.86083C15.5982 5.45458 16.9266 6.24863 18.2083 7.125V17.4167H19V19H0V17.4167H0.791667V7.125C2.07021 6.26683 3.40258 5.47833 4.84658 4.88458C4.95504 5.41025 5.15296 5.90821 5.42292 6.35946C4.34625 6.80517 3.3535 7.3625 2.38371 7.97446L2.375 7.98V17.4167H3.95833V13.4583H15.0417V17.4167ZM5.54167 18.2083H7.91667V15.0417H5.54167V18.2083ZM8.70833 18.2083H10.2917V15.0417H8.70833V18.2083ZM11.0833 18.2083H13.4583V15.0417H11.0833V18.2083ZM3.95833 12.6667H5.54167V11.0833H3.95833V12.6667ZM7.125 12.6667H8.70833V11.0833H7.125V12.6667ZM10.2917 12.6667H11.875V11.0833H10.2917V12.6667ZM13.4583 12.6667H15.0417V11.0833H13.4583V12.6667ZM3.95833 10.2917H5.54167V8.70833H3.95833V10.2917ZM7.125 10.2917H8.70833V8.70833H7.125V10.2917ZM10.2917 10.2917H11.875V8.70833H10.2917V10.2917ZM13.4583 10.2917H15.0417V8.70833H13.4583V10.2917ZM9.5 0C11.685 0 13.4583 1.77333 13.4583 3.95833C13.4583 6.14333 11.685 7.91667 9.5 7.91667C7.315 7.91667 5.54167 6.14333 5.54167 3.95833C5.54167 1.77333 7.315 0 9.5 0ZM10.2917 3.16667V1.58333H8.70833V3.16667H7.125V4.75H8.70833V6.33333H10.2917V4.75H11.875V3.16667H10.2917Z" fill="white"/>
</svg>
