<svg width="17" height="17" viewBox="0 0 17 17" fill="none" xmlns="http://www.w3.org/2000/svg">
<path d="M8.5 1.53212C10.7695 1.53212 11.0387 1.54062 11.9354 1.58171C14.2389 1.68654 15.3149 2.7795 15.4197 5.066C15.4608 5.96204 15.4686 6.23121 15.4686 8.50071C15.4686 10.7709 15.4601 11.0394 15.4197 11.9354C15.3142 14.2198 14.241 15.3149 11.9354 15.4197C11.0387 15.4608 10.7709 15.4693 8.5 15.4693C6.2305 15.4693 5.96133 15.4608 5.06529 15.4197C2.75612 15.3142 1.68583 14.2163 1.581 11.9347C1.53992 11.0387 1.53142 10.7702 1.53142 8.5C1.53142 6.2305 1.54063 5.96204 1.581 5.06529C1.68654 2.7795 2.75967 1.68583 5.06529 1.581C5.96204 1.54063 6.2305 1.53212 8.5 1.53212ZM8.5 0C6.19154 0 5.90254 0.00991667 4.99587 0.051C1.90896 0.192667 0.193375 1.90542 0.0517083 4.99517C0.00991667 5.90254 0 6.19154 0 8.5C0 10.8085 0.00991667 11.0982 0.051 12.0048C0.192667 15.0917 1.90542 16.8073 4.99517 16.949C5.90254 16.9901 6.19154 17 8.5 17C10.8085 17 11.0982 16.9901 12.0048 16.949C15.0889 16.8073 16.8088 15.0946 16.9483 12.0048C16.9901 11.0982 17 10.8085 17 8.5C17 6.19154 16.9901 5.90254 16.949 4.99587C16.8102 1.91179 15.0953 0.193375 12.0055 0.0517083C11.0982 0.00991667 10.8085 0 8.5 0V0ZM8.5 4.13525C6.08954 4.13525 4.13525 6.08954 4.13525 8.5C4.13525 10.9105 6.08954 12.8655 8.5 12.8655C10.9105 12.8655 12.8647 10.9112 12.8647 8.5C12.8647 6.08954 10.9105 4.13525 8.5 4.13525ZM8.5 11.3333C6.93529 11.3333 5.66667 10.0654 5.66667 8.5C5.66667 6.93529 6.93529 5.66667 8.5 5.66667C10.0647 5.66667 11.3333 6.93529 11.3333 8.5C11.3333 10.0654 10.0647 11.3333 8.5 11.3333ZM13.0376 2.94313C12.4738 2.94313 12.0169 3.4 12.0169 3.96312C12.0169 4.52625 12.4738 4.98312 13.0376 4.98312C13.6007 4.98312 14.0569 4.52625 14.0569 3.96312C14.0569 3.4 13.6007 2.94313 13.0376 2.94313Z" fill="#949494"/>
</svg>
