<svg width="25" height="15" viewBox="0 0 25 15" fill="none" xmlns="http://www.w3.org/2000/svg">
<path d="M13.912 14.3169C14.521 14.3169 14.77 13.9028 14.763 13.3835C14.732 11.4279 15.477 10.3751 16.822 11.7472C18.31 13.2652 18.618 14.3169 20.425 14.3169H23.625C24.433 14.3169 24.751 14.0517 24.751 13.6355C24.751 12.7551 23.33 11.2014 22.126 10.0609C20.44 8.46436 20.361 8.42661 21.813 6.50466C23.614 4.11854 25.97 1.06116 23.886 1.06116H19.905C19.133 1.06116 19.077 1.50492 18.802 2.16598C17.807 4.56026 15.916 7.6615 15.198 7.18714C14.447 6.69237 14.791 4.73267 14.848 1.82015C14.863 1.05096 14.859 0.523544 13.707 0.250145C13.078 0.102224 12.466 0.0410156 11.898 0.0410156C9.625 0.0410156 8.057 1.01321 8.948 1.18256C10.519 1.48146 10.368 4.94894 10.002 6.44651C9.364 9.054 6.966 4.38174 5.967 2.05478C5.726 1.49574 5.652 1.06116 4.792 1.06116H1.537C1.045 1.06116 0.75 1.22438 0.75 1.58756C0.75 2.20168 3.71 8.44293 6.536 11.5544C9.292 14.5893 12.016 14.3169 13.912 14.3169Z" fill="#949494"/>
</svg>
