<svg width="290" height="785" viewBox="0 0 290 785" fill="none" xmlns="http://www.w3.org/2000/svg">
<g filter="url(#filter0_i)">
<path d="M-657.847 482.035C-575.598 584.699 -460.577 753.923 -281.491 722.546C-102.405 691.169 223.947 247.202 195.177 82.9943C166.408 -81.213 -288.325 132.598 -522.574 173.639C-701.66 205.016 -763.298 322.097 -657.847 482.035Z" fill="#228F9D"/>
</g>
<g filter="url(#filter1_i)">
<path d="M-620.357 472.523C-545.362 566.133 -440.484 720.433 -277.192 691.823C-113.901 663.214 183.67 258.4 157.438 108.675C131.205 -41.0507 -283.423 153.904 -497.014 191.326C-660.306 219.935 -716.508 326.691 -620.357 472.523Z" fill="white"/>
</g>
<g filter="url(#filter2_i)">
<path d="M-668.596 520.189C-596.729 609.893 -496.227 757.757 -339.746 730.341C-183.266 702.925 101.892 314.998 76.7534 171.518C51.6152 28.0383 -345.717 214.86 -550.398 250.721C-706.878 278.137 -760.736 380.439 -668.596 520.189Z" fill="#228F9D"/>
</g>
<g filter="url(#filter3_i)">
<path d="M-635.838 511.878C-570.309 593.671 -478.67 728.494 -335.99 703.496C-193.31 678.498 66.6986 324.783 43.7773 193.957C20.8561 63.131 -341.435 233.477 -528.064 266.175C-670.744 291.173 -719.852 384.453 -635.838 511.878Z" fill="white"/>
</g>
<defs>
<filter id="filter0_i" x="-743" y="0" width="1032.7" height="795.297" filterUnits="userSpaceOnUse" color-interpolation-filters="sRGB">
<feFlood flood-opacity="0" result="BackgroundImageFix"/>
<feBlend mode="normal" in="SourceGraphic" in2="BackgroundImageFix" result="shape"/>
<feColorMatrix in="SourceAlpha" type="matrix" values="0 0 0 0 0 0 0 0 0 0 0 0 0 0 0 0 0 0 127 0" result="hardAlpha"/>
<feOffset dy="11"/>
<feGaussianBlur stdDeviation="5.5"/>
<feComposite in2="hardAlpha" operator="arithmetic" k2="-1" k3="1"/>
<feColorMatrix type="matrix" values="0 0 0 0 0 0 0 0 0 0 0 0 0 0 0 0 0 0 0.25 0"/>
<feBlend mode="normal" in2="shape" result="effect1_innerShadow"/>
</filter>
<filter id="filter1_i" x="-698" y="33" width="941.62" height="726.128" filterUnits="userSpaceOnUse" color-interpolation-filters="sRGB">
<feFlood flood-opacity="0" result="BackgroundImageFix"/>
<feBlend mode="normal" in="SourceGraphic" in2="BackgroundImageFix" result="shape"/>
<feColorMatrix in="SourceAlpha" type="matrix" values="0 0 0 0 0 0 0 0 0 0 0 0 0 0 0 0 0 0 127 0" result="hardAlpha"/>
<feOffset dy="11"/>
<feGaussianBlur stdDeviation="5.5"/>
<feComposite in2="hardAlpha" operator="arithmetic" k2="-1" k3="1"/>
<feColorMatrix type="matrix" values="0 0 0 0 0 0 0 0 0 0 0 0 0 0 0 0 0 0 0.25 0"/>
<feBlend mode="normal" in2="shape" result="effect1_innerShadow"/>
</filter>
<filter id="filter2_i" x="-743" y="99" width="902.341" height="696.297" filterUnits="userSpaceOnUse" color-interpolation-filters="sRGB">
<feFlood flood-opacity="0" result="BackgroundImageFix"/>
<feBlend mode="normal" in="SourceGraphic" in2="BackgroundImageFix" result="shape"/>
<feColorMatrix in="SourceAlpha" type="matrix" values="0 0 0 0 0 0 0 0 0 0 0 0 0 0 0 0 0 0 127 0" result="hardAlpha"/>
<feOffset dy="11"/>
<feGaussianBlur stdDeviation="5.5"/>
<feComposite in2="hardAlpha" operator="arithmetic" k2="-1" k3="1"/>
<feColorMatrix type="matrix" values="0 0 0 0 0 0 0 0 0 0 0 0 0 0 0 0 0 0 0.25 0"/>
<feBlend mode="normal" in2="shape" result="effect1_innerShadow"/>
</filter>
<filter id="filter3_i" x="-703.68" y="127.834" width="822.762" height="635.859" filterUnits="userSpaceOnUse" color-interpolation-filters="sRGB">
<feFlood flood-opacity="0" result="BackgroundImageFix"/>
<feBlend mode="normal" in="SourceGraphic" in2="BackgroundImageFix" result="shape"/>
<feColorMatrix in="SourceAlpha" type="matrix" values="0 0 0 0 0 0 0 0 0 0 0 0 0 0 0 0 0 0 127 0" result="hardAlpha"/>
<feOffset dy="11"/>
<feGaussianBlur stdDeviation="5.5"/>
<feComposite in2="hardAlpha" operator="arithmetic" k2="-1" k3="1"/>
<feColorMatrix type="matrix" values="0 0 0 0 0 0 0 0 0 0 0 0 0 0 0 0 0 0 0.25 0"/>
<feBlend mode="normal" in2="shape" result="effect1_innerShadow"/>
</filter>
</defs>
</svg>
