<svg width="98" height="67" viewBox="0 0 98 67" fill="none" xmlns="http://www.w3.org/2000/svg">
<circle cx="33.5" cy="33.5" r="33" stroke="#D3C4AE"/>
<path d="M23.2929 33.2929C22.9024 33.6834 22.9024 34.3166 23.2929 34.7071L29.6569 41.0711C30.0474 41.4616 30.6805 41.4616 31.0711 41.0711C31.4616 40.6805 31.4616 40.0474 31.0711 39.6569L25.4142 34L31.0711 28.3431C31.4616 27.9526 31.4616 27.3195 31.0711 26.9289C30.6805 26.5384 30.0474 26.5384 29.6569 26.9289L23.2929 33.2929ZM25 33L24 33L24 35L25 35L25 33Z" fill="#515151"/>
<rect x="45" y="20" width="53" height="24" fill="white"/>
<path d="M47.52 30.52C47.52 29.976 47.4453 29.576 47.296 29.32C47.1467 29.0533 46.848 28.92 46.4 28.92H46.24V28.44H48.16C48.544 28.44 48.8373 28.504 49.04 28.632C49.2427 28.76 49.3867 28.9733 49.472 29.272C49.5573 29.56 49.6 29.976 49.6 30.52V33.16H53.92V28.44H56V36.92C56 37.464 56.0747 37.8693 56.224 38.136C56.3733 38.392 56.672 38.52 57.12 38.52H57.28V39H55.36C54.976 39 54.6827 38.9413 54.48 38.824C54.2773 38.696 54.1333 38.488 54.048 38.2C53.9627 37.9013 53.92 37.4747 53.92 36.92V33.88H49.6V39H47.52V30.52ZM62.0965 39.16C61.2325 39.16 60.5605 38.968 60.0805 38.584C59.6112 38.1893 59.3765 37.6613 59.3765 37C59.3765 36.4667 59.4992 36.024 59.7445 35.672C60.0005 35.32 60.4432 35.0533 61.0725 34.872C61.7018 34.6907 62.5765 34.6 63.6965 34.6H63.9365C63.9365 33.672 63.8085 33.016 63.5525 32.632C63.2965 32.2373 62.9178 32.04 62.4165 32.04C62.0005 32.04 61.6592 32.1413 61.3925 32.344C61.1258 32.5467 60.9338 32.9253 60.8165 33.48H59.9365C59.9365 33.1173 59.9578 32.808 60.0005 32.552C60.0538 32.296 60.1658 32.072 60.3365 31.88C60.6672 31.5067 61.4672 31.32 62.7365 31.32C63.8032 31.32 64.6138 31.6027 65.1685 32.168C65.7338 32.7227 66.0165 33.56 66.0165 34.68V39H64.6565L64.0965 38.28H64.0165C63.9205 38.4293 63.7712 38.5787 63.5685 38.728C63.2058 39.016 62.7152 39.16 62.0965 39.16ZM62.5765 38.36C62.8005 38.36 62.9925 38.3173 63.1525 38.232C63.3125 38.136 63.4672 38.008 63.6165 37.848C63.7552 37.6987 63.8618 37.5227 63.9365 37.32V35.32H63.6965C62.9392 35.32 62.3898 35.4587 62.0485 35.736C61.7072 36.0027 61.5365 36.424 61.5365 37C61.5365 37.4373 61.6272 37.7733 61.8085 38.008C61.9898 38.2427 62.2458 38.36 62.5765 38.36ZM71.89 39.16C70.578 39.16 69.5913 38.7333 68.93 37.88L69.41 37.48C69.922 38.12 70.5887 38.44 71.41 38.44C71.922 38.44 72.3273 38.3227 72.626 38.088C72.9353 37.8533 73.09 37.4907 73.09 37C73.09 36.4773 72.946 36.0933 72.658 35.848C72.3807 35.6027 71.8847 35.48 71.17 35.48H70.37V34.76H71.17C71.7993 34.76 72.2367 34.6587 72.482 34.456C72.7273 34.2427 72.85 33.8907 72.85 33.4C72.85 32.952 72.7113 32.616 72.434 32.392C72.1567 32.1573 71.8153 32.04 71.41 32.04C70.93 32.04 70.5247 32.2053 70.194 32.536C69.8633 32.856 69.682 33.2773 69.65 33.8H69.17C69.17 33.2453 69.1913 32.8347 69.234 32.568C69.2767 32.2907 69.3887 32.0613 69.57 31.88C69.762 31.688 70.0553 31.5493 70.45 31.464C70.8447 31.368 71.298 31.32 71.81 31.32C72.802 31.32 73.5807 31.496 74.146 31.848C74.722 32.1893 75.01 32.7067 75.01 33.4C75.01 33.8693 74.834 34.2587 74.482 34.568C74.1407 34.8773 73.6767 35.0747 73.09 35.16C73.7513 35.2453 74.274 35.4533 74.658 35.784C75.0527 36.1147 75.25 36.52 75.25 37C75.25 37.736 74.9567 38.28 74.37 38.632C73.7833 38.984 72.9567 39.16 71.89 39.16ZM80.5934 39.16C79.7294 39.16 79.0574 38.968 78.5774 38.584C78.108 38.1893 77.8734 37.6613 77.8734 37C77.8734 36.4667 77.996 36.024 78.2414 35.672C78.4974 35.32 78.94 35.0533 79.5694 34.872C80.1987 34.6907 81.0734 34.6 82.1934 34.6H82.4334C82.4334 33.672 82.3054 33.016 82.0494 32.632C81.7934 32.2373 81.4147 32.04 80.9134 32.04C80.4974 32.04 80.156 32.1413 79.8894 32.344C79.6227 32.5467 79.4307 32.9253 79.3134 33.48H78.4334C78.4334 33.1173 78.4547 32.808 78.4974 32.552C78.5507 32.296 78.6627 32.072 78.8334 31.88C79.164 31.5067 79.964 31.32 81.2334 31.32C82.3 31.32 83.1107 31.6027 83.6654 32.168C84.2307 32.7227 84.5134 33.56 84.5134 34.68V39H83.1534L82.5934 38.28H82.5134C82.4174 38.4293 82.268 38.5787 82.0654 38.728C81.7027 39.016 81.212 39.16 80.5934 39.16ZM81.0734 38.36C81.2974 38.36 81.4894 38.3173 81.6494 38.232C81.8094 38.136 81.964 38.008 82.1134 37.848C82.252 37.6987 82.3587 37.5227 82.4334 37.32V35.32H82.1934C81.436 35.32 80.8867 35.4587 80.5454 35.736C80.204 36.0027 80.0334 36.424 80.0334 37C80.0334 37.4373 80.124 37.7733 80.3054 38.008C80.4867 38.2427 80.7427 38.36 81.0734 38.36ZM87.0909 38.84C87.0909 38.68 87.1442 38.5467 87.2509 38.44C87.3575 38.3333 87.4909 38.28 87.6509 38.28H88.2269C88.5682 37.5333 88.8135 36.7387 88.9629 35.896C89.1122 35.0427 89.1869 34.2107 89.1869 33.4C89.1869 32.9307 89.1069 32.5733 88.9469 32.328C88.7869 32.0827 88.4669 31.96 87.9869 31.96V31.48H95.1069V38.28H95.5869C95.7469 38.28 95.8802 38.3333 95.9869 38.44C96.0935 38.5467 96.1469 38.68 96.1469 38.84V41.56H95.3469C95.2935 40.8773 95.1922 40.3493 95.0429 39.976C94.8935 39.6133 94.6962 39.3573 94.4509 39.208C94.2162 39.0693 93.9175 39 93.5549 39H89.6829C89.3202 39 89.0162 39.0693 88.7709 39.208C88.5362 39.3573 88.3442 39.6133 88.1949 39.976C88.0455 40.3493 87.9442 40.8773 87.8909 41.56H87.0909V38.84ZM93.0269 38.28V32.2H90.7709C90.7709 33.576 90.7015 34.7387 90.5629 35.688C90.4349 36.6267 90.2109 37.4907 89.8909 38.28H93.0269Z" fill="#515151"/>
</svg>
