<svg width="98" height="67" viewBox="0 0 98 67" fill="none" xmlns="http://www.w3.org/2000/svg">
<circle cx="33.5" cy="33.5" r="33" stroke="#D3C4AE"/>
<path d="M35.7071 32.7071C36.0976 32.3166 36.0976 31.6834 35.7071 31.2929L29.3431 24.9289C28.9526 24.5384 28.3195 24.5384 27.9289 24.9289C27.5384 25.3195 27.5384 25.9526 27.9289 26.3431L33.5858 32L27.9289 37.6569C27.5384 38.0474 27.5384 38.6805 27.9289 39.0711C28.3195 39.4616 28.9526 39.4616 29.3431 39.0711L35.7071 32.7071ZM33 33H35V31H33V33Z" fill="white"/>
<rect x="45" y="20" width="53" height="24" fill="#515151"/>
<path d="M51.52 29.52C51.52 28.976 51.4453 28.576 51.296 28.32C51.1467 28.0533 50.848 27.92 50.4 27.92H50.24V27.44H57.296C58.2027 27.44 58.656 27.8667 58.656 28.72V30.08H58.176C58.176 29.4187 58.0053 28.9333 57.664 28.624C57.3333 28.3147 56.8373 28.16 56.176 28.16H53.6V32.16H57.76V32.88H53.6V37.28H56.336C56.944 37.28 57.4507 37.1467 57.856 36.88C58.2613 36.6027 58.5973 36.128 58.864 35.456L59.296 35.616L58.832 36.88C58.6933 37.264 58.528 37.5467 58.336 37.728C58.144 37.9093 57.8453 38 57.44 38H51.52V29.52ZM72.6978 40.56C72.6444 39.8773 72.5431 39.3493 72.3938 38.976C72.2444 38.6133 72.0471 38.3573 71.8018 38.208C71.5671 38.0693 71.2684 38 70.9058 38H62.4578V32.56C62.4578 32.016 62.3831 31.616 62.2338 31.36C62.0844 31.0933 61.7858 30.96 61.3378 30.96H61.1778V30.48H63.0978C63.4818 30.48 63.7751 30.544 63.9778 30.672C64.1804 30.8 64.3244 31.0133 64.4098 31.312C64.4951 31.6 64.5378 32.016 64.5378 32.56V37.28H66.3778V30.48H68.4578V37.28H70.2978V30.48H72.3778V37.28H72.8578C73.0178 37.28 73.1511 37.3333 73.2578 37.44C73.3644 37.5467 73.4178 37.68 73.4178 37.84V40.56H72.6978ZM79.4251 38.16C78.6891 38.16 78.0438 37.9893 77.4891 37.648C76.9345 37.3067 76.5025 36.8427 76.1931 36.256C75.8945 35.6587 75.7451 34.9867 75.7451 34.24C75.7451 33.408 75.8945 32.6987 76.1931 32.112C76.5025 31.5253 76.9238 31.0827 77.4571 30.784C77.9905 30.4747 78.5931 30.32 79.2651 30.32C79.9265 30.32 80.5238 30.4533 81.0571 30.72C81.5905 30.9867 82.0118 31.3653 82.3211 31.856C82.6305 32.336 82.7851 32.8907 82.7851 33.52C82.7851 33.7227 82.7745 33.952 82.7531 34.208L82.7211 34.528H77.9051C77.9051 35.5413 78.0598 36.2827 78.3691 36.752C78.6785 37.2107 79.1105 37.44 79.6651 37.44C80.1771 37.44 80.6038 37.328 80.9451 37.104C81.2971 36.8693 81.6331 36.5387 81.9531 36.112L82.4491 36.48C82.1398 36.96 81.7505 37.36 81.2811 37.68C80.8225 38 80.2038 38.16 79.4251 38.16ZM80.6251 33.808C80.6251 32.8053 80.5078 32.096 80.2731 31.68C80.0385 31.2533 79.7025 31.04 79.2651 31.04C78.8598 31.04 78.5291 31.2587 78.2731 31.696C78.0278 32.1227 77.9051 32.8267 77.9051 33.808H80.6251ZM77.7931 29.6C77.5158 29.6 77.2971 29.5147 77.1371 29.344C76.9771 29.1733 76.8971 28.96 76.8971 28.704C76.8971 28.448 76.9771 28.2347 77.1371 28.064C77.2971 27.8933 77.5158 27.808 77.7931 27.808C78.0705 27.808 78.2891 27.8933 78.4491 28.064C78.6091 28.2347 78.6891 28.448 78.6891 28.704C78.6891 28.96 78.6091 29.1733 78.4491 29.344C78.2891 29.5147 78.0705 29.6 77.7931 29.6ZM80.6731 29.6C80.3958 29.6 80.1771 29.5147 80.0171 29.344C79.8571 29.1733 79.7771 28.96 79.7771 28.704C79.7771 28.448 79.8571 28.2347 80.0171 28.064C80.1771 27.8933 80.3958 27.808 80.6731 27.808C80.9505 27.808 81.1691 27.8933 81.3291 28.064C81.4891 28.2347 81.5691 28.448 81.5691 28.704C81.5691 28.96 81.4891 29.1733 81.3291 29.344C81.1691 29.5147 80.9505 29.6 80.6731 29.6Z" fill="white"/>
</svg>
