<svg width="194" height="689" viewBox="0 0 194 689" fill="none" xmlns="http://www.w3.org/2000/svg">
<g filter="url(#filter0_i)">
<path d="M-21.6406 568.145C-127.913 634.393 -267.718 602.027 -333.903 495.854C-400.089 389.68 -302.131 5.82028 -195.859 -60.4272C-89.5868 -126.675 -35.6303 117.073 50.9426 255.95C117.128 362.123 84.6317 501.898 -21.6406 568.145Z" fill="#228F9D"/>
</g>
<g filter="url(#filter1_d)">
<path d="M-45.3602 515.976C-136.26 572.64 -256.926 543.216 -314.875 450.255C-372.825 357.294 -398.311 152.265 -307.412 95.6002C-216.512 38.9357 -43.649 152.093 14.3007 245.054C72.2504 338.015 45.5393 459.311 -45.3602 515.976Z" fill="white"/>
</g>
<defs>
<filter id="filter0_i" x="-355.425" y="-71.6152" width="440.665" height="685.144" filterUnits="userSpaceOnUse" color-interpolation-filters="sRGB">
<feFlood flood-opacity="0" result="BackgroundImageFix"/>
<feBlend mode="normal" in="SourceGraphic" in2="BackgroundImageFix" result="shape"/>
<feColorMatrix in="SourceAlpha" type="matrix" values="0 0 0 0 0 0 0 0 0 0 0 0 0 0 0 0 0 0 127 0" result="hardAlpha"/>
<feOffset dy="11"/>
<feGaussianBlur stdDeviation="5.5"/>
<feComposite in2="hardAlpha" operator="arithmetic" k2="-1" k3="1"/>
<feColorMatrix type="matrix" values="0 0 0 0 0 0 0 0 0 0 0 0 0 0 0 0 0 0 0.25 0"/>
<feBlend mode="normal" in2="shape" result="effect1_innerShadow"/>
</filter>
<filter id="filter1_d" x="-476" y="-7" width="599.228" height="633.576" filterUnits="userSpaceOnUse" color-interpolation-filters="sRGB">
<feFlood flood-opacity="0" result="BackgroundImageFix"/>
<feColorMatrix in="SourceAlpha" type="matrix" values="0 0 0 0 0 0 0 0 0 0 0 0 0 0 0 0 0 0 127 0"/>
<feOffset dy="4"/>
<feGaussianBlur stdDeviation="2"/>
<feColorMatrix type="matrix" values="0 0 0 0 0 0 0 0 0 0 0 0 0 0 0 0 0 0 0.25 0"/>
<feBlend mode="normal" in2="BackgroundImageFix" result="effect1_dropShadow"/>
<feBlend mode="normal" in="SourceGraphic" in2="effect1_dropShadow" result="shape"/>
</filter>
</defs>
</svg>
