<svg width="120" height="67" viewBox="0 0 120 67" fill="none" xmlns="http://www.w3.org/2000/svg">
<circle cx="33.5" cy="33.5" r="32.5" stroke="#228F9D" stroke-width="2"/>
<path d="M39.7071 34.7071C40.0976 34.3166 40.0976 33.6834 39.7071 33.2929L33.3431 26.9289C32.9526 26.5384 32.3195 26.5384 31.9289 26.9289C31.5384 27.3195 31.5384 27.9526 31.9289 28.3431L37.5858 34L31.9289 39.6569C31.5384 40.0474 31.5384 40.6805 31.9289 41.0711C32.3195 41.4616 32.9526 41.4616 33.3431 41.0711L39.7071 34.7071ZM37 35H39V33H37V35Z" fill="#5A5A5A"/>
<rect x="49" y="22" width="71" height="26" fill="white"/>
<path d="M59.52 31.52C59.52 30.976 59.4453 30.576 59.296 30.32C59.1467 30.0533 58.848 29.92 58.4 29.92H58.24V29.44H65.296C66.2027 29.44 66.656 29.8667 66.656 30.72V32.08H66.176C66.176 31.4187 66.0053 30.9333 65.664 30.624C65.3333 30.3147 64.8373 30.16 64.176 30.16H61.6V34.16H65.76V34.88H61.6V39.28H64.336C64.944 39.28 65.4507 39.1467 65.856 38.88C66.2613 38.6027 66.5973 38.128 66.864 37.456L67.296 37.616L66.832 38.88C66.6933 39.264 66.528 39.5467 66.336 39.728C66.144 39.9093 65.8453 40 65.44 40H59.52V31.52ZM80.6978 42.56C80.6444 41.8773 80.5431 41.3493 80.3938 40.976C80.2444 40.6133 80.0471 40.3573 79.8018 40.208C79.5671 40.0693 79.2684 40 78.9058 40H70.4578V34.56C70.4578 34.016 70.3831 33.616 70.2338 33.36C70.0844 33.0933 69.7858 32.96 69.3378 32.96H69.1778V32.48H71.0978C71.4818 32.48 71.7751 32.544 71.9778 32.672C72.1804 32.8 72.3244 33.0133 72.4098 33.312C72.4951 33.6 72.5378 34.016 72.5378 34.56V39.28H74.3778V32.48H76.4578V39.28H78.2978V32.48H80.3778V39.28H80.8578C81.0178 39.28 81.1511 39.3333 81.2578 39.44C81.3644 39.5467 81.4178 39.68 81.4178 39.84V42.56H80.6978ZM87.4251 40.16C86.6891 40.16 86.0438 39.9893 85.4891 39.648C84.9345 39.3067 84.5025 38.8427 84.1931 38.256C83.8945 37.6587 83.7451 36.9867 83.7451 36.24C83.7451 35.408 83.8945 34.6987 84.1931 34.112C84.5025 33.5253 84.9238 33.0827 85.4571 32.784C85.9905 32.4747 86.5931 32.32 87.2651 32.32C87.9265 32.32 88.5238 32.4533 89.0571 32.72C89.5905 32.9867 90.0118 33.3653 90.3211 33.856C90.6305 34.336 90.7851 34.8907 90.7851 35.52C90.7851 35.7227 90.7745 35.952 90.7531 36.208L90.7211 36.528H85.9051C85.9051 37.5413 86.0598 38.2827 86.3691 38.752C86.6785 39.2107 87.1105 39.44 87.6651 39.44C88.1771 39.44 88.6038 39.328 88.9451 39.104C89.2971 38.8693 89.6331 38.5387 89.9531 38.112L90.4491 38.48C90.1398 38.96 89.7505 39.36 89.2811 39.68C88.8225 40 88.2038 40.16 87.4251 40.16ZM88.6251 35.808C88.6251 34.8053 88.5078 34.096 88.2731 33.68C88.0385 33.2533 87.7025 33.04 87.2651 33.04C86.8598 33.04 86.5291 33.2587 86.2731 33.696C86.0278 34.1227 85.9051 34.8267 85.9051 35.808H88.6251ZM85.7931 31.6C85.5158 31.6 85.2971 31.5147 85.1371 31.344C84.9771 31.1733 84.8971 30.96 84.8971 30.704C84.8971 30.448 84.9771 30.2347 85.1371 30.064C85.2971 29.8933 85.5158 29.808 85.7931 29.808C86.0705 29.808 86.2891 29.8933 86.4491 30.064C86.6091 30.2347 86.6891 30.448 86.6891 30.704C86.6891 30.96 86.6091 31.1733 86.4491 31.344C86.2891 31.5147 86.0705 31.6 85.7931 31.6ZM88.6731 31.6C88.3958 31.6 88.1771 31.5147 88.0171 31.344C87.8571 31.1733 87.7771 30.96 87.7771 30.704C87.7771 30.448 87.8571 30.2347 88.0171 30.064C88.1771 29.8933 88.3958 29.808 88.6731 29.808C88.9505 29.808 89.1691 29.8933 89.3291 30.064C89.4891 30.2347 89.5691 30.448 89.5691 30.704C89.5691 30.96 89.4891 31.1733 89.3291 31.344C89.1691 31.5147 88.9505 31.6 88.6731 31.6Z" fill="#555555"/>
</svg>
