<svg width="101" height="67" viewBox="0 0 101 67" fill="none" xmlns="http://www.w3.org/2000/svg">
<circle cx="33.5" cy="33.5" r="32.5" stroke="#228F9D" stroke-width="2"/>
<path d="M26.2929 33.2929C25.9024 33.6834 25.9024 34.3166 26.2929 34.7071L32.6569 41.0711C33.0474 41.4616 33.6805 41.4616 34.0711 41.0711C34.4616 40.6805 34.4616 40.0474 34.0711 39.6569L28.4142 34L34.0711 28.3431C34.4616 27.9526 34.4616 27.3195 34.0711 26.9289C33.6805 26.5384 33.0474 26.5384 32.6569 26.9289L26.2929 33.2929ZM28.5 33H27V35H28.5V33Z" fill="#5A5A5A"/>
<path d="M51.02 31.52C51.02 30.976 50.9453 30.576 50.796 30.32C50.6467 30.0533 50.348 29.92 49.9 29.92H49.74V29.44H51.66C52.044 29.44 52.3373 29.504 52.54 29.632C52.7427 29.76 52.8867 29.9733 52.972 30.272C53.0573 30.56 53.1 30.976 53.1 31.52V34.16H57.42V29.44H59.5V37.92C59.5 38.464 59.5747 38.8693 59.724 39.136C59.8733 39.392 60.172 39.52 60.62 39.52H60.78V40H58.86C58.476 40 58.1827 39.9413 57.98 39.824C57.7773 39.696 57.6333 39.488 57.548 39.2C57.4627 38.9013 57.42 38.4747 57.42 37.92V34.88H53.1V40H51.02V31.52ZM65.5965 40.16C64.7325 40.16 64.0605 39.968 63.5805 39.584C63.1112 39.1893 62.8765 38.6613 62.8765 38C62.8765 37.4667 62.9992 37.024 63.2445 36.672C63.5005 36.32 63.9432 36.0533 64.5725 35.872C65.2018 35.6907 66.0765 35.6 67.1965 35.6H67.4365C67.4365 34.672 67.3085 34.016 67.0525 33.632C66.7965 33.2373 66.4178 33.04 65.9165 33.04C65.5005 33.04 65.1592 33.1413 64.8925 33.344C64.6258 33.5467 64.4338 33.9253 64.3165 34.48H63.4365C63.4365 34.1173 63.4578 33.808 63.5005 33.552C63.5538 33.296 63.6658 33.072 63.8365 32.88C64.1672 32.5067 64.9672 32.32 66.2365 32.32C67.3032 32.32 68.1138 32.6027 68.6685 33.168C69.2338 33.7227 69.5165 34.56 69.5165 35.68V40H68.1565L67.5965 39.28H67.5165C67.4205 39.4293 67.2712 39.5787 67.0685 39.728C66.7058 40.016 66.2152 40.16 65.5965 40.16ZM66.0765 39.36C66.3005 39.36 66.4925 39.3173 66.6525 39.232C66.8125 39.136 66.9672 39.008 67.1165 38.848C67.2552 38.6987 67.3618 38.5227 67.4365 38.32V36.32H67.1965C66.4392 36.32 65.8898 36.4587 65.5485 36.736C65.2072 37.0027 65.0365 37.424 65.0365 38C65.0365 38.4373 65.1272 38.7733 65.3085 39.008C65.4898 39.2427 65.7458 39.36 66.0765 39.36ZM75.39 40.16C74.078 40.16 73.0913 39.7333 72.43 38.88L72.91 38.48C73.422 39.12 74.0887 39.44 74.91 39.44C75.422 39.44 75.8273 39.3227 76.126 39.088C76.4353 38.8533 76.59 38.4907 76.59 38C76.59 37.4773 76.446 37.0933 76.158 36.848C75.8807 36.6027 75.3847 36.48 74.67 36.48H73.87V35.76H74.67C75.2993 35.76 75.7367 35.6587 75.982 35.456C76.2273 35.2427 76.35 34.8907 76.35 34.4C76.35 33.952 76.2113 33.616 75.934 33.392C75.6567 33.1573 75.3153 33.04 74.91 33.04C74.43 33.04 74.0247 33.2053 73.694 33.536C73.3633 33.856 73.182 34.2773 73.15 34.8H72.67C72.67 34.2453 72.6913 33.8347 72.734 33.568C72.7767 33.2907 72.8887 33.0613 73.07 32.88C73.262 32.688 73.5553 32.5493 73.95 32.464C74.3447 32.368 74.798 32.32 75.31 32.32C76.302 32.32 77.0807 32.496 77.646 32.848C78.222 33.1893 78.51 33.7067 78.51 34.4C78.51 34.8693 78.334 35.2587 77.982 35.568C77.6407 35.8773 77.1767 36.0747 76.59 36.16C77.2513 36.2453 77.774 36.4533 78.158 36.784C78.5527 37.1147 78.75 37.52 78.75 38C78.75 38.736 78.4567 39.28 77.87 39.632C77.2833 39.984 76.4567 40.16 75.39 40.16ZM84.0934 40.16C83.2294 40.16 82.5574 39.968 82.0774 39.584C81.608 39.1893 81.3734 38.6613 81.3734 38C81.3734 37.4667 81.496 37.024 81.7414 36.672C81.9974 36.32 82.44 36.0533 83.0694 35.872C83.6987 35.6907 84.5734 35.6 85.6934 35.6H85.9334C85.9334 34.672 85.8054 34.016 85.5494 33.632C85.2934 33.2373 84.9147 33.04 84.4134 33.04C83.9974 33.04 83.656 33.1413 83.3894 33.344C83.1227 33.5467 82.9307 33.9253 82.8134 34.48H81.9334C81.9334 34.1173 81.9547 33.808 81.9974 33.552C82.0507 33.296 82.1627 33.072 82.3334 32.88C82.664 32.5067 83.464 32.32 84.7334 32.32C85.8 32.32 86.6107 32.6027 87.1654 33.168C87.7307 33.7227 88.0134 34.56 88.0134 35.68V40H86.6534L86.0934 39.28H86.0134C85.9174 39.4293 85.768 39.5787 85.5654 39.728C85.2027 40.016 84.712 40.16 84.0934 40.16ZM84.5734 39.36C84.7974 39.36 84.9894 39.3173 85.1494 39.232C85.3094 39.136 85.464 39.008 85.6134 38.848C85.752 38.6987 85.8587 38.5227 85.9334 38.32V36.32H85.6934C84.936 36.32 84.3867 36.4587 84.0454 36.736C83.704 37.0027 83.5334 37.424 83.5334 38C83.5334 38.4373 83.624 38.7733 83.8054 39.008C83.9867 39.2427 84.2427 39.36 84.5734 39.36ZM90.5909 39.84C90.5909 39.68 90.6442 39.5467 90.7509 39.44C90.8575 39.3333 90.9909 39.28 91.1509 39.28H91.7269C92.0682 38.5333 92.3135 37.7387 92.4629 36.896C92.6122 36.0427 92.6869 35.2107 92.6869 34.4C92.6869 33.9307 92.6069 33.5733 92.4469 33.328C92.2869 33.0827 91.9669 32.96 91.4869 32.96V32.48H98.6069V39.28H99.0869C99.2469 39.28 99.3802 39.3333 99.4869 39.44C99.5935 39.5467 99.6469 39.68 99.6469 39.84V42.56H98.8469C98.7935 41.8773 98.6922 41.3493 98.5429 40.976C98.3935 40.6133 98.1962 40.3573 97.9509 40.208C97.7162 40.0693 97.4175 40 97.0549 40H93.1829C92.8202 40 92.5162 40.0693 92.2709 40.208C92.0362 40.3573 91.8442 40.6133 91.6949 40.976C91.5455 41.3493 91.4442 41.8773 91.3909 42.56H90.5909V39.84ZM96.5269 39.28V33.2H94.2709C94.2709 34.576 94.2015 35.7387 94.0629 36.688C93.9349 37.6267 93.7109 38.4907 93.3909 39.28H96.5269Z" fill="#555555"/>
</svg>
