<svg width="167" height="167" viewBox="0 0 167 167" fill="none" xmlns="http://www.w3.org/2000/svg">
<path d="M90.4583 102.461C90.4583 66.6887 117.54 29.2668 160.042 20.875L166.889 35.6684C151.476 41.4786 137.921 61.7065 136.411 75.651C153.744 78.3787 167 93.3739 167 111.479C167 133.621 149.02 146.125 130.824 146.125C109.844 146.125 90.4583 130.086 90.4583 102.461ZM0 102.461C0 66.6887 27.0818 29.2668 69.5833 20.875L76.4303 35.6684C61.0176 41.4786 47.4628 61.7065 45.9528 75.651C63.286 78.3787 76.5417 93.3739 76.5417 111.479C76.5417 133.621 58.5613 146.125 40.3653 146.125C19.3859 146.125 0 130.086 0 102.461Z" fill="#D3C4AE" fill-opacity="0.42"/>
</svg>
