<svg width="1975" height="344" viewBox="0 0 1975 344" fill="none" xmlns="http://www.w3.org/2000/svg">
<path d="M0 342.12C5.42215 342.12 27.1107 342.12 37.2773 342.12C57.6103 337.008 91.4987 335.986 138.942 288.451C166.933 260.408 285.792 156.58 340.579 104.445C372.208 74.8001 456.737 22.1563 501.548 7.8431C559.159 -10.558 559.159 41.5773 559.159 47.7108C559.159 53.8444 555.77 102.913 550.687 133.58C545.603 164.248 511.715 262.384 513.409 288.451C515.104 314.519 515.104 335.986 540.52 342.12C565.936 348.253 609.991 320.652 620.158 311.452C630.324 302.251 674.379 266.984 703.185 240.917C729.489 217.112 958.001 20.9359 1001.4 7.8431C1031.9 -1.35766 1084.43 -13.6243 1101.37 63.0446C1118.32 139.714 1114.93 190.315 1135.26 208.715C1155.59 227.116 1181.01 237.85 1233.54 230.183C1286.07 222.516 1433.48 122.846 1445.34 115.179C1457.2 107.513 1553.78 40.0441 1584.28 63.0446C1614.78 86.0452 1604.5 102 1641.89 142.78C1656.6 158.822 1692.73 179.581 1743.56 187.248C1794.39 194.915 1840.14 202.582 1880.81 197.982C1913.34 194.302 1956.49 182.137 1974 176.515" stroke="#228F9D" stroke-opacity="0.3" stroke-width="2"/>
</svg>
